<?xml version="1.0" encoding="UTF-8" standalone="no"?><svg xmlns="http://www.w3.org/2000/svg" xmlns:xlink="http://www.w3.org/1999/xlink" contentScriptType="application/ecmascript" contentStyleType="text/css" height="1065px" preserveAspectRatio="none" style="width:1270px;height:1065px;" version="1.1" viewBox="0 0 1270 1065" width="1270px" zoomAndPan="magnify"><defs/><g><text fill="#000000" font-family="sans-serif" font-size="18" lengthAdjust="spacingAndGlyphs" textLength="242" x="513" y="26.8838">NEUST Gatepass Admin Flow</text><ellipse cx="643.5" cy="40.6982" fill="#000000" rx="10" ry="10" style="stroke: none; stroke-width: 1.0;"/><rect fill="#F8FBFF" height="33.7988" rx="12.5" ry="12.5" style="stroke: #2B6CB0; stroke-width: 1.5;" width="123" x="582" y="70.6982"/><text fill="#1F2937" font-family="sans-serif" font-size="12" lengthAdjust="spacingAndGlyphs" textLength="103" x="592" y="91.9541">Open Admin Portal</text><polygon fill="#FEFECE" points="599,124.4971,688,124.4971,700,136.4971,688,148.4971,599,148.4971,587,136.4971,599,124.4971" style="stroke: #A80036; stroke-width: 1.5;"/><text fill="#000000" font-family="sans-serif" font-size="11" lengthAdjust="spacingAndGlyphs" textLength="89" x="599" y="140.4905">Already logged in?</text><text fill="#000000" font-family="sans-serif" font-size="11" lengthAdjust="spacingAndGlyphs" textLength="14" x="573" y="134.166">No</text><text fill="#000000" font-family="sans-serif" font-size="11" lengthAdjust="spacingAndGlyphs" textLength="19" x="700" y="134.166">Yes</text><rect fill="#F8FBFF" height="33.7988" rx="12.5" ry="12.5" style="stroke: #2B6CB0; stroke-width: 1.5;" width="115" x="456.625" y="158.4971"/><text fill="#1F2937" font-family="sans-serif" font-size="12" lengthAdjust="spacingAndGlyphs" textLength="95" x="466.625" y="179.7529">Go to Login Page</text><rect fill="#F8FBFF" height="33.7988" rx="12.5" ry="12.5" style="stroke: #2B6CB0; stroke-width: 1.5;" width="224" x="402.125" y="212.2959"/><text fill="#1F2937" font-family="sans-serif" font-size="12" lengthAdjust="spacingAndGlyphs" textLength="204" x="412.125" y="233.5518">Enter admin username and password</text><polygon fill="#FEFECE" points="471.125,266.0947,557.125,266.0947,569.125,278.0947,557.125,290.0947,471.125,290.0947,459.125,278.0947,471.125,266.0947" style="stroke: #A80036; stroke-width: 1.5;"/><text fill="#000000" font-family="sans-serif" font-size="11" lengthAdjust="spacingAndGlyphs" textLength="86" x="471.125" y="282.0881">Credentials valid?</text><text fill="#000000" font-family="sans-serif" font-size="11" lengthAdjust="spacingAndGlyphs" textLength="19" x="440.125" y="275.7637">Yes</text><text fill="#000000" font-family="sans-serif" font-size="11" lengthAdjust="spacingAndGlyphs" textLength="14" x="569.125" y="275.7637">No</text><rect fill="#F8FBFF" height="33.7988" rx="12.5" ry="12.5" style="stroke: #2B6CB0; stroke-width: 1.5;" width="78" x="363.375" y="300.0947"/><text fill="#1F2937" font-family="sans-serif" font-size="12" lengthAdjust="spacingAndGlyphs" textLength="58" x="373.375" y="321.3506">Verify OTP</text><polygon fill="#FEFECE" points="369.875,353.8936,434.875,353.8936,446.875,365.8936,434.875,377.8936,369.875,377.8936,357.875,365.8936,369.875,353.8936" style="stroke: #A80036; stroke-width: 1.5;"/><text fill="#000000" font-family="sans-serif" font-size="11" lengthAdjust="spacingAndGlyphs" textLength="65" x="369.875" y="369.887">OTP is valid?</text><text fill="#000000" font-family="sans-serif" font-size="11" lengthAdjust="spacingAndGlyphs" textLength="19" x="338.875" y="363.5625">Yes</text><text fill="#000000" font-family="sans-serif" font-size="11" lengthAdjust="spacingAndGlyphs" textLength="14" x="446.875" y="363.5625">No</text><rect fill="#F8FBFF" height="33.7988" rx="12.5" ry="12.5" style="stroke: #2B6CB0; stroke-width: 1.5;" width="143" x="255.875" y="387.8936"/><text fill="#1F2937" font-family="sans-serif" font-size="12" lengthAdjust="spacingAndGlyphs" textLength="123" x="265.875" y="409.1494">Redirect to Dashboard</text><rect fill="#F8FBFF" height="33.7988" rx="12.5" ry="12.5" style="stroke: #2B6CB0; stroke-width: 1.5;" width="117" x="418.875" y="387.8936"/><text fill="#1F2937" font-family="sans-serif" font-size="12" lengthAdjust="spacingAndGlyphs" textLength="97" x="428.875" y="409.1494">Display OTP error</text><rect fill="#F8FBFF" height="33.7988" rx="12.5" ry="12.5" style="stroke: #2B6CB0; stroke-width: 1.5;" width="79" x="437.875" y="456.6924"/><text fill="#1F2937" font-family="sans-serif" font-size="12" lengthAdjust="spacingAndGlyphs" textLength="59" x="447.875" y="477.9482">Retry login</text><ellipse cx="477.375" cy="521.4912" fill="#FFFFFF" rx="11" ry="11" style="stroke: #000000; stroke-width: 1.0;"/><ellipse cx="477.375" cy="521.4912" fill="#000000" rx="6" ry="6" style="stroke: #7F7F7F; stroke-width: 1.0;"/><rect fill="#F8FBFF" height="33.7988" rx="12.5" ry="12.5" style="stroke: #2B6CB0; stroke-width: 1.5;" width="120" x="565.875" y="300.0947"/><text fill="#1F2937" font-family="sans-serif" font-size="12" lengthAdjust="spacingAndGlyphs" textLength="100" x="575.875" y="321.3506">Display login error</text><rect fill="#F8FBFF" height="33.7988" rx="12.5" ry="12.5" style="stroke: #2B6CB0; stroke-width: 1.5;" width="79" x="586.375" y="353.8936"/><text fill="#1F2937" font-family="sans-serif" font-size="12" lengthAdjust="spacingAndGlyphs" textLength="59" x="596.375" y="375.1494">Retry login</text><ellipse cx="625.875" cy="433.6924" fill="#FFFFFF" rx="11" ry="11" style="stroke: #000000; stroke-width: 1.0;"/><ellipse cx="625.875" cy="433.6924" fill="#000000" rx="6" ry="6" style="stroke: #7F7F7F; stroke-width: 1.0;"/><rect fill="#F8FBFF" height="33.7988" rx="12.5" ry="12.5" style="stroke: #2B6CB0; stroke-width: 1.5;" width="114" x="715.875" y="158.4971"/><text fill="#1F2937" font-family="sans-serif" font-size="12" lengthAdjust="spacingAndGlyphs" textLength="94" x="725.875" y="179.7529">Open Dashboard</text><polygon fill="#FEFECE" points="643.5,542.4912,655.5,554.4912,643.5,566.4912,631.5,554.4912,643.5,542.4912" style="stroke: #A80036; stroke-width: 1.5;"/><rect fill="#F8FBFF" height="33.7988" rx="12.5" ry="12.5" style="stroke: #2B6CB0; stroke-width: 1.5;" width="140" x="573.5" y="586.4912"/><text fill="#1F2937" font-family="sans-serif" font-size="12" lengthAdjust="spacingAndGlyphs" textLength="120" x="583.5" y="607.7471">View system overview</text><rect fill="#F8FBFF" height="33.7988" rx="12.5" ry="12.5" style="stroke: #2B6CB0; stroke-width: 1.5;" width="341" x="473" y="640.29"/><text fill="#1F2937" font-family="sans-serif" font-size="12" lengthAdjust="spacingAndGlyphs" textLength="321" x="483" y="661.5459">Check dashboard metrics, logs, attendance, and schedules</text><rect fill="#000000" height="6" rx="2.5" ry="2.5" style="stroke: #000000; stroke-width: 1.0;" width="1249" x="10" y="694.0889"/><rect fill="#F8FBFF" height="33.7988" rx="12.5" ry="12.5" style="stroke: #2B6CB0; stroke-width: 1.5;" width="116" x="58.5" y="720.0889"/><text fill="#1F2937" font-family="sans-serif" font-size="12" lengthAdjust="spacingAndGlyphs" textLength="96" x="68.5" y="741.3447">Manage Students</text><rect fill="#F8FBFF" height="33.7988" rx="12.5" ry="12.5" style="stroke: #2B6CB0; stroke-width: 1.5;" width="135" x="49" y="788.8877"/><text fill="#1F2937" font-family="sans-serif" font-size="12" lengthAdjust="spacingAndGlyphs" textLength="115" x="59" y="810.1436">Register new student</text><rect fill="#F8FBFF" height="33.7988" rx="12.5" ry="12.5" style="stroke: #2B6CB0; stroke-width: 1.5;" width="189" x="22" y="857.6865"/><text fill="#1F2937" font-family="sans-serif" font-size="12" lengthAdjust="spacingAndGlyphs" textLength="169" x="32" y="878.9424">View or update student records</text><rect fill="#F8FBFF" height="33.7988" rx="12.5" ry="12.5" style="stroke: #2B6CB0; stroke-width: 1.5;" width="107" x="236" y="720.0889"/><text fill="#1F2937" font-family="sans-serif" font-size="12" lengthAdjust="spacingAndGlyphs" textLength="87" x="246" y="741.3447">Manage Faculty</text><rect fill="#F8FBFF" height="33.7988" rx="12.5" ry="12.5" style="stroke: #2B6CB0; stroke-width: 1.5;" width="129" x="225" y="788.8877"/><text fill="#1F2937" font-family="sans-serif" font-size="12" lengthAdjust="spacingAndGlyphs" textLength="109" x="235" y="810.1436">View faculty records</text><rect fill="#F8FBFF" height="33.7988" rx="12.5" ry="12.5" style="stroke: #2B6CB0; stroke-width: 1.5;" width="137" x="221" y="857.6865"/><text fill="#1F2937" font-family="sans-serif" font-size="12" lengthAdjust="spacingAndGlyphs" textLength="117" x="231" y="878.9424">Update faculty details</text><rect fill="#F8FBFF" height="33.7988" rx="12.5" ry="12.5" style="stroke: #2B6CB0; stroke-width: 1.5;" width="160" x="391.5" y="720.0889"/><text fill="#1F2937" font-family="sans-serif" font-size="12" lengthAdjust="spacingAndGlyphs" textLength="140" x="401.5" y="741.3447">Manage Class Schedules</text><rect fill="#F8FBFF" height="33.7988" rx="12.5" ry="12.5" style="stroke: #2B6CB0; stroke-width: 1.5;" width="171" x="386" y="788.8877"/><text fill="#1F2937" font-family="sans-serif" font-size="12" lengthAdjust="spacingAndGlyphs" textLength="151" x="396" y="810.1436">Create or update schedules</text><rect fill="#F8FBFF" height="33.7988" rx="12.5" ry="12.5" style="stroke: #2B6CB0; stroke-width: 1.5;" width="158" x="392.5" y="857.6865"/><text fill="#1F2937" font-family="sans-serif" font-size="12" lengthAdjust="spacingAndGlyphs" textLength="138" x="402.5" y="878.9424">Check teacher schedules</text><rect fill="#F8FBFF" height="33.7988" rx="12.5" ry="12.5" style="stroke: #2B6CB0; stroke-width: 1.5;" width="156" x="634" y="754.4883"/><text fill="#1F2937" font-family="sans-serif" font-size="12" lengthAdjust="spacingAndGlyphs" textLength="136" x="644" y="775.7441">Review Attendance Logs</text><rect fill="#F8FBFF" height="33.7988" rx="12.5" ry="12.5" style="stroke: #2B6CB0; stroke-width: 1.5;" width="254" x="585" y="823.2871"/><text fill="#1F2937" font-family="sans-serif" font-size="12" lengthAdjust="spacingAndGlyphs" textLength="234" x="595" y="844.543">Check student attendance and scan history</text><rect fill="#F8FBFF" height="33.7988" rx="12.5" ry="12.5" style="stroke: #2B6CB0; stroke-width: 1.5;" width="163" x="878" y="754.4883"/><text fill="#1F2937" font-family="sans-serif" font-size="12" lengthAdjust="spacingAndGlyphs" textLength="143" x="888" y="775.7441">Audit &amp; System Monitoring</text><rect fill="#F8FBFF" height="33.7988" rx="12.5" ry="12.5" style="stroke: #2B6CB0; stroke-width: 1.5;" width="221" x="849" y="823.2871"/><text fill="#1F2937" font-family="sans-serif" font-size="12" lengthAdjust="spacingAndGlyphs" textLength="201" x="859" y="844.543">Review audit logs and system events</text><rect fill="#F8FBFF" height="33.7988" rx="12.5" ry="12.5" style="stroke: #2B6CB0; stroke-width: 1.5;" width="150" x="1088.5" y="720.0889"/><text fill="#1F2937" font-family="sans-serif" font-size="12" lengthAdjust="spacingAndGlyphs" textLength="130" x="1098.5" y="741.3447">Manage Admin Settings</text><rect fill="#F8FBFF" height="33.7988" rx="12.5" ry="12.5" style="stroke: #2B6CB0; stroke-width: 1.5;" width="167" x="1080" y="788.8877"/><text fill="#1F2937" font-family="sans-serif" font-size="12" lengthAdjust="spacingAndGlyphs" textLength="147" x="1090" y="810.1436">Change password or email</text><rect fill="#F8FBFF" height="33.7988" rx="12.5" ry="12.5" style="stroke: #2B6CB0; stroke-width: 1.5;" width="129" x="1099" y="857.6865"/><text fill="#1F2937" font-family="sans-serif" font-size="12" lengthAdjust="spacingAndGlyphs" textLength="109" x="1109" y="878.9424">Update app settings</text><rect fill="#000000" height="6" rx="2.5" ry="2.5" style="stroke: #000000; stroke-width: 1.0;" width="1249" x="10" y="911.4854"/><polygon fill="#FEFECE" points="604,937.4854,683,937.4854,695,949.4854,683,961.4854,604,961.4854,592,949.4854,604,937.4854" style="stroke: #A80036; stroke-width: 1.5;"/><text fill="#000000" font-family="sans-serif" font-size="11" lengthAdjust="spacingAndGlyphs" textLength="79" x="604" y="953.4788">Need to log out?</text><text fill="#000000" font-family="sans-serif" font-size="11" lengthAdjust="spacingAndGlyphs" textLength="19" x="573" y="947.1543">Yes</text><text fill="#000000" font-family="sans-serif" font-size="11" lengthAdjust="spacingAndGlyphs" textLength="14" x="695" y="947.1543">No</text><rect fill="#F8FBFF" height="33.7988" rx="12.5" ry="12.5" style="stroke: #2B6CB0; stroke-width: 1.5;" width="156" x="470.5" y="971.4854"/><text fill="#1F2937" font-family="sans-serif" font-size="12" lengthAdjust="spacingAndGlyphs" textLength="136" x="480.5" y="992.7412">Logout from admin portal</text><ellipse cx="548.5" cy="1036.2842" fill="#FFFFFF" rx="11" ry="11" style="stroke: #000000; stroke-width: 1.0;"/><ellipse cx="548.5" cy="1036.2842" fill="#000000" rx="6" ry="6" style="stroke: #7F7F7F; stroke-width: 1.0;"/><rect fill="#F8FBFF" height="33.7988" rx="12.5" ry="12.5" style="stroke: #2B6CB0; stroke-width: 1.5;" width="184" x="646.5" y="971.4854"/><text fill="#1F2937" font-family="sans-serif" font-size="12" lengthAdjust="spacingAndGlyphs" textLength="164" x="656.5" y="992.7412">Continue using admin module</text><line style="stroke: #4A5568; stroke-width: 1.5;" x1="643.5" x2="643.5" y1="50.6982" y2="70.6982"/><polygon fill="#4A5568" points="639.5,60.6982,643.5,70.6982,647.5,60.6982,643.5,64.6982" style="stroke: #4A5568; stroke-width: 1.0;"/><line style="stroke: #4A5568; stroke-width: 1.5;" x1="514.125" x2="514.125" y1="192.2959" y2="212.2959"/><polygon fill="#4A5568" points="510.125,202.2959,514.125,212.2959,518.125,202.2959,514.125,206.2959" style="stroke: #4A5568; stroke-width: 1.0;"/><line style="stroke: #4A5568; stroke-width: 1.5;" x1="477.375" x2="477.375" y1="421.6924" y2="456.6924"/><polygon fill="#4A5568" points="473.375,446.6924,477.375,456.6924,481.375,446.6924,477.375,450.6924" style="stroke: #4A5568; stroke-width: 1.0;"/><line style="stroke: #4A5568; stroke-width: 1.5;" x1="477.375" x2="477.375" y1="490.4912" y2="510.4912"/><polygon fill="#4A5568" points="473.375,500.4912,477.375,510.4912,481.375,500.4912,477.375,504.4912" style="stroke: #4A5568; stroke-width: 1.0;"/><line style="stroke: #4A5568; stroke-width: 1.5;" x1="357.875" x2="327.375" y1="365.8936" y2="365.8936"/><line style="stroke: #4A5568; stroke-width: 1.5;" x1="327.375" x2="327.375" y1="365.8936" y2="387.8936"/><polygon fill="#4A5568" points="323.375,377.8936,327.375,387.8936,331.375,377.8936,327.375,381.8936" style="stroke: #4A5568; stroke-width: 1.0;"/><line style="stroke: #4A5568; stroke-width: 1.5;" x1="446.875" x2="477.375" y1="365.8936" y2="365.8936"/><line style="stroke: #4A5568; stroke-width: 1.5;" x1="477.375" x2="477.375" y1="365.8936" y2="387.8936"/><polygon fill="#4A5568" points="473.375,377.8936,477.375,387.8936,481.375,377.8936,477.375,381.8936" style="stroke: #4A5568; stroke-width: 1.0;"/><line style="stroke: #4A5568; stroke-width: 1.5;" x1="327.375" x2="327.375" y1="421.6924" y2="554.4912"/><line style="stroke: #4A5568; stroke-width: 1.5;" x1="327.375" x2="631.5" y1="554.4912" y2="554.4912"/><polygon fill="#4A5568" points="621.5,550.4912,631.5,554.4912,621.5,558.4912,625.5,554.4912" style="stroke: #4A5568; stroke-width: 1.0;"/><line style="stroke: #4A5568; stroke-width: 1.5;" x1="402.375" x2="402.375" y1="333.8936" y2="353.8936"/><polygon fill="#4A5568" points="398.375,343.8936,402.375,353.8936,406.375,343.8936,402.375,347.8936" style="stroke: #4A5568; stroke-width: 1.0;"/><line style="stroke: #4A5568; stroke-width: 1.5;" x1="625.875" x2="625.875" y1="333.8936" y2="353.8936"/><polygon fill="#4A5568" points="621.875,343.8936,625.875,353.8936,629.875,343.8936,625.875,347.8936" style="stroke: #4A5568; stroke-width: 1.0;"/><line style="stroke: #4A5568; stroke-width: 1.5;" x1="625.875" x2="625.875" y1="387.6924" y2="422.6924"/><polygon fill="#4A5568" points="621.875,412.6924,625.875,422.6924,629.875,412.6924,625.875,416.6924" style="stroke: #4A5568; stroke-width: 1.0;"/><line style="stroke: #4A5568; stroke-width: 1.5;" x1="459.125" x2="402.375" y1="278.0947" y2="278.0947"/><line style="stroke: #4A5568; stroke-width: 1.5;" x1="402.375" x2="402.375" y1="278.0947" y2="300.0947"/><polygon fill="#4A5568" points="398.375,290.0947,402.375,300.0947,406.375,290.0947,402.375,294.0947" style="stroke: #4A5568; stroke-width: 1.0;"/><line style="stroke: #4A5568; stroke-width: 1.5;" x1="569.125" x2="625.875" y1="278.0947" y2="278.0947"/><line style="stroke: #4A5568; stroke-width: 1.5;" x1="625.875" x2="625.875" y1="278.0947" y2="300.0947"/><polygon fill="#4A5568" points="621.875,290.0947,625.875,300.0947,629.875,290.0947,625.875,294.0947" style="stroke: #4A5568; stroke-width: 1.0;"/><line style="stroke: #4A5568; stroke-width: 1.5;" x1="514.125" x2="514.125" y1="246.0947" y2="266.0947"/><polygon fill="#4A5568" points="510.125,256.0947,514.125,266.0947,518.125,256.0947,514.125,260.0947" style="stroke: #4A5568; stroke-width: 1.0;"/><line style="stroke: #4A5568; stroke-width: 1.5;" x1="587" x2="514.125" y1="136.4971" y2="136.4971"/><line style="stroke: #4A5568; stroke-width: 1.5;" x1="514.125" x2="514.125" y1="136.4971" y2="158.4971"/><polygon fill="#4A5568" points="510.125,148.4971,514.125,158.4971,518.125,148.4971,514.125,152.4971" style="stroke: #4A5568; stroke-width: 1.0;"/><line style="stroke: #4A5568; stroke-width: 1.5;" x1="700" x2="772.875" y1="136.4971" y2="136.4971"/><line style="stroke: #4A5568; stroke-width: 1.5;" x1="772.875" x2="772.875" y1="136.4971" y2="158.4971"/><polygon fill="#4A5568" points="768.875,148.4971,772.875,158.4971,776.875,148.4971,772.875,152.4971" style="stroke: #4A5568; stroke-width: 1.0;"/><line style="stroke: #4A5568; stroke-width: 1.5;" x1="772.875" x2="772.875" y1="192.2959" y2="554.4912"/><line style="stroke: #4A5568; stroke-width: 1.5;" x1="772.875" x2="655.5" y1="554.4912" y2="554.4912"/><polygon fill="#4A5568" points="665.5,550.4912,655.5,554.4912,665.5,558.4912,661.5,554.4912" style="stroke: #4A5568; stroke-width: 1.0;"/><line style="stroke: #4A5568; stroke-width: 1.5;" x1="643.5" x2="643.5" y1="104.4971" y2="124.4971"/><polygon fill="#4A5568" points="639.5,114.4971,643.5,124.4971,647.5,114.4971,643.5,118.4971" style="stroke: #4A5568; stroke-width: 1.0;"/><line style="stroke: #4A5568; stroke-width: 1.5;" x1="643.5" x2="643.5" y1="566.4912" y2="586.4912"/><polygon fill="#4A5568" points="639.5,576.4912,643.5,586.4912,647.5,576.4912,643.5,580.4912" style="stroke: #4A5568; stroke-width: 1.0;"/><line style="stroke: #4A5568; stroke-width: 1.5;" x1="643.5" x2="643.5" y1="620.29" y2="640.29"/><polygon fill="#4A5568" points="639.5,630.29,643.5,640.29,647.5,630.29,643.5,634.29" style="stroke: #4A5568; stroke-width: 1.0;"/><line style="stroke: #4A5568; stroke-width: 1.5;" x1="116.5" x2="116.5" y1="753.8877" y2="788.8877"/><polygon fill="#4A5568" points="112.5,778.8877,116.5,788.8877,120.5,778.8877,116.5,782.8877" style="stroke: #4A5568; stroke-width: 1.0;"/><line style="stroke: #4A5568; stroke-width: 1.5;" x1="116.5" x2="116.5" y1="822.6865" y2="857.6865"/><polygon fill="#4A5568" points="112.5,847.6865,116.5,857.6865,120.5,847.6865,116.5,851.6865" style="stroke: #4A5568; stroke-width: 1.0;"/><line style="stroke: #4A5568; stroke-width: 1.5;" x1="289.5" x2="289.5" y1="753.8877" y2="788.8877"/><polygon fill="#4A5568" points="285.5,778.8877,289.5,788.8877,293.5,778.8877,289.5,782.8877" style="stroke: #4A5568; stroke-width: 1.0;"/><line style="stroke: #4A5568; stroke-width: 1.5;" x1="289.5" x2="289.5" y1="822.6865" y2="857.6865"/><polygon fill="#4A5568" points="285.5,847.6865,289.5,857.6865,293.5,847.6865,289.5,851.6865" style="stroke: #4A5568; stroke-width: 1.0;"/><line style="stroke: #4A5568; stroke-width: 1.5;" x1="471.5" x2="471.5" y1="753.8877" y2="788.8877"/><polygon fill="#4A5568" points="467.5,778.8877,471.5,788.8877,475.5,778.8877,471.5,782.8877" style="stroke: #4A5568; stroke-width: 1.0;"/><line style="stroke: #4A5568; stroke-width: 1.5;" x1="471.5" x2="471.5" y1="822.6865" y2="857.6865"/><polygon fill="#4A5568" points="467.5,847.6865,471.5,857.6865,475.5,847.6865,471.5,851.6865" style="stroke: #4A5568; stroke-width: 1.0;"/><line style="stroke: #4A5568; stroke-width: 1.5;" x1="712" x2="712" y1="788.2871" y2="823.2871"/><polygon fill="#4A5568" points="708,813.2871,712,823.2871,716,813.2871,712,817.2871" style="stroke: #4A5568; stroke-width: 1.0;"/><line style="stroke: #4A5568; stroke-width: 1.5;" x1="959.5" x2="959.5" y1="788.2871" y2="823.2871"/><polygon fill="#4A5568" points="955.5,813.2871,959.5,823.2871,963.5,813.2871,959.5,817.2871" style="stroke: #4A5568; stroke-width: 1.0;"/><line style="stroke: #4A5568; stroke-width: 1.5;" x1="1163.5" x2="1163.5" y1="753.8877" y2="788.8877"/><polygon fill="#4A5568" points="1159.5,778.8877,1163.5,788.8877,1167.5,778.8877,1163.5,782.8877" style="stroke: #4A5568; stroke-width: 1.0;"/><line style="stroke: #4A5568; stroke-width: 1.5;" x1="1163.5" x2="1163.5" y1="822.6865" y2="857.6865"/><polygon fill="#4A5568" points="1159.5,847.6865,1163.5,857.6865,1167.5,847.6865,1163.5,851.6865" style="stroke: #4A5568; stroke-width: 1.0;"/><line style="stroke: #4A5568; stroke-width: 1.5;" x1="116.5" x2="116.5" y1="700.0889" y2="720.0889"/><polygon fill="#4A5568" points="112.5,710.0889,116.5,720.0889,120.5,710.0889,116.5,714.0889" style="stroke: #4A5568; stroke-width: 1.0;"/><line style="stroke: #4A5568; stroke-width: 1.5;" x1="289.5" x2="289.5" y1="700.0889" y2="720.0889"/><polygon fill="#4A5568" points="285.5,710.0889,289.5,720.0889,293.5,710.0889,289.5,714.0889" style="stroke: #4A5568; stroke-width: 1.0;"/><line style="stroke: #4A5568; stroke-width: 1.5;" x1="471.5" x2="471.5" y1="700.0889" y2="720.0889"/><polygon fill="#4A5568" points="467.5,710.0889,471.5,720.0889,475.5,710.0889,471.5,714.0889" style="stroke: #4A5568; stroke-width: 1.0;"/><line style="stroke: #4A5568; stroke-width: 1.5;" x1="712" x2="712" y1="700.0889" y2="754.4883"/><polygon fill="#4A5568" points="708,744.4883,712,754.4883,716,744.4883,712,748.4883" style="stroke: #4A5568; stroke-width: 1.0;"/><line style="stroke: #4A5568; stroke-width: 1.5;" x1="959.5" x2="959.5" y1="700.0889" y2="754.4883"/><polygon fill="#4A5568" points="955.5,744.4883,959.5,754.4883,963.5,744.4883,959.5,748.4883" style="stroke: #4A5568; stroke-width: 1.0;"/><line style="stroke: #4A5568; stroke-width: 1.5;" x1="1163.5" x2="1163.5" y1="700.0889" y2="720.0889"/><polygon fill="#4A5568" points="1159.5,710.0889,1163.5,720.0889,1167.5,710.0889,1163.5,714.0889" style="stroke: #4A5568; stroke-width: 1.0;"/><line style="stroke: #4A5568; stroke-width: 1.5;" x1="116.5" x2="116.5" y1="891.4854" y2="911.4854"/><polygon fill="#4A5568" points="112.5,901.4854,116.5,911.4854,120.5,901.4854,116.5,905.4854" style="stroke: #4A5568; stroke-width: 1.0;"/><line style="stroke: #4A5568; stroke-width: 1.5;" x1="289.5" x2="289.5" y1="891.4854" y2="911.4854"/><polygon fill="#4A5568" points="285.5,901.4854,289.5,911.4854,293.5,901.4854,289.5,905.4854" style="stroke: #4A5568; stroke-width: 1.0;"/><line style="stroke: #4A5568; stroke-width: 1.5;" x1="471.5" x2="471.5" y1="891.4854" y2="911.4854"/><polygon fill="#4A5568" points="467.5,901.4854,471.5,911.4854,475.5,901.4854,471.5,905.4854" style="stroke: #4A5568; stroke-width: 1.0;"/><line style="stroke: #4A5568; stroke-width: 1.5;" x1="712" x2="712" y1="857.0859" y2="911.4854"/><polygon fill="#4A5568" points="708,901.4854,712,911.4854,716,901.4854,712,905.4854" style="stroke: #4A5568; stroke-width: 1.0;"/><line style="stroke: #4A5568; stroke-width: 1.5;" x1="959.5" x2="959.5" y1="857.0859" y2="911.4854"/><polygon fill="#4A5568" points="955.5,901.4854,959.5,911.4854,963.5,901.4854,959.5,905.4854" style="stroke: #4A5568; stroke-width: 1.0;"/><line style="stroke: #4A5568; stroke-width: 1.5;" x1="1163.5" x2="1163.5" y1="891.4854" y2="911.4854"/><polygon fill="#4A5568" points="1159.5,901.4854,1163.5,911.4854,1167.5,901.4854,1163.5,905.4854" style="stroke: #4A5568; stroke-width: 1.0;"/><line style="stroke: #4A5568; stroke-width: 1.5;" x1="643.5" x2="643.5" y1="674.0889" y2="694.0889"/><polygon fill="#4A5568" points="639.5,684.0889,643.5,694.0889,647.5,684.0889,643.5,688.0889" style="stroke: #4A5568; stroke-width: 1.0;"/><line style="stroke: #4A5568; stroke-width: 1.5;" x1="548.5" x2="548.5" y1="1005.2842" y2="1025.2842"/><polygon fill="#4A5568" points="544.5,1015.2842,548.5,1025.2842,552.5,1015.2842,548.5,1019.2842" style="stroke: #4A5568; stroke-width: 1.0;"/><line style="stroke: #4A5568; stroke-width: 1.5;" x1="592" x2="548.5" y1="949.4854" y2="949.4854"/><line style="stroke: #4A5568; stroke-width: 1.5;" x1="548.5" x2="548.5" y1="949.4854" y2="971.4854"/><polygon fill="#4A5568" points="544.5,961.4854,548.5,971.4854,552.5,961.4854,548.5,965.4854" style="stroke: #4A5568; stroke-width: 1.0;"/><line style="stroke: #4A5568; stroke-width: 1.5;" x1="695" x2="738.5" y1="949.4854" y2="949.4854"/><line style="stroke: #4A5568; stroke-width: 1.5;" x1="738.5" x2="738.5" y1="949.4854" y2="971.4854"/><polygon fill="#4A5568" points="734.5,961.4854,738.5,971.4854,742.5,961.4854,738.5,965.4854" style="stroke: #4A5568; stroke-width: 1.0;"/><line style="stroke: #4A5568; stroke-width: 1.5;" x1="738.5" x2="738.5" y1="1005.2842" y2="1053.2842"/><line style="stroke: #4A5568; stroke-width: 1.5;" x1="738.5" x2="643.5" y1="1053.2842" y2="1053.2842"/><line style="stroke: #4A5568; stroke-width: 1.5;" x1="643.5" x2="643.5" y1="917.4854" y2="937.4854"/><polygon fill="#4A5568" points="639.5,927.4854,643.5,937.4854,647.5,927.4854,643.5,931.4854" style="stroke: #4A5568; stroke-width: 1.0;"/><!--MD5=[8fafc3d6a6cbb6f8cc6bb0c212fe13b6]
@startuml
skinparam shadowing false
skinparam linetype ortho
skinparam activityBackgroundColor #F8FBFF
skinparam activityBorderColor #2B6CB0
skinparam activityFontColor #1F2937
skinparam arrowColor #4A5568

title NEUST Gatepass Admin Flow

start

:Open Admin Portal;

if (Already logged in?) then (No)
  :Go to Login Page;
  :Enter admin username and password;
  if (Credentials valid?) then (Yes)
    :Verify OTP;
    if (OTP is valid?) then (Yes)
      :Redirect to Dashboard;
    else (No)
      :Display OTP error;
      :Retry login;
      stop
    endif
  else (No)
    :Display login error;
    :Retry login;
    stop
  endif
else (Yes)
  :Open Dashboard;
endif

:View system overview;
:Check dashboard metrics, logs, attendance, and schedules;

fork
  :Manage Students;
  :Register new student;
  :View or update student records;
fork again
  :Manage Faculty;
  :View faculty records;
  :Update faculty details;
fork again
  :Manage Class Schedules;
  :Create or update schedules;
  :Check teacher schedules;
fork again
  :Review Attendance Logs;
  :Check student attendance and scan history;
fork again
  :Audit & System Monitoring;
  :Review audit logs and system events;
fork again
  :Manage Admin Settings;
  :Change password or email;
  :Update app settings;
end fork

if (Need to log out?) then (Yes)
  :Logout from admin portal;
  stop
else (No)
  :Continue using admin module;
endif

@enduml

PlantUML version 1.2020.02(Sun Mar 01 18:22:07 PST 2020)
(GPL source distribution)
Java Runtime: OpenJDK Runtime Environment
JVM: OpenJDK 64-Bit Server VM
Java Version: 21.0.12.1+1-1-24.04.4-Ubuntu
Operating System: Linux
Default Encoding: UTF-8
Language: en
Country: PH
--></g></svg>